<svg width="400" height="300" viewBox="0 0 400 300" xmlns="http://www.w3.org/2000/svg">
  <!-- Background -->
  <rect width="400" height="300" fill="#F5F5DC"/>
  
  <!-- Bottle Shape -->
  <ellipse cx="200" cy="200" rx="60" ry="80" fill="#8B4513" opacity="0.3"/>
  <rect x="140" y="80" width="120" height="140" rx="10" fill="#2D5016"/>
  <rect x="150" y="90" width="100" height="120" rx="5" fill="#B8860B"/>
  
  <!-- Label -->
  <rect x="160" y="120" width="80" height="60" rx="3" fill="#F5F5DC"/>
  <text x="200" y="140" text-anchor="middle" font-family="serif" font-size="12" fill="#2D5016">تازمورث</text>
  <text x="200" y="155" text-anchor="middle" font-family="serif" font-size="8" fill="#8B4513">Huile d'Olive</text>
  <text x="200" y="170" text-anchor="middle" font-family="serif" font-size="8" fill="#8B4513">Extra Vierge</text>
  
  <!-- Olive Branch Decoration -->
  <path d="M 120 60 Q 130 50 140 60 Q 150 50 160 60 Q 170 50 180 60" stroke="#2D5016" stroke-width="2" fill="none"/>
  <circle cx="125" cy="55" r="3" fill="#2D5016"/>
  <circle cx="135" cy="55" r="3" fill="#2D5016"/>
  <circle cx="145" cy="55" r="3" fill="#2D5016"/>
  <circle cx="155" cy="55" r="3" fill="#2D5016"/>
  <circle cx="165" cy="55" r="3" fill="#2D5016"/>
  <circle cx="175" cy="55" r="3" fill="#2D5016"/>
  
  <!-- Traditional Pattern -->
  <rect x="170" y="200" width="60" height="40" fill="#B8860B" opacity="0.5"/>
  <circle cx="180" cy="210" r="2" fill="#2D5016"/>
  <circle cx="190" cy="210" r="2" fill="#2D5016"/>
  <circle cx="200" cy="210" r="2" fill="#2D5016"/>
  <circle cx="210" cy="210" r="2" fill="#2D5016"/>
  <circle cx="220" cy="210" r="2" fill="#2D5016"/>
  
  <!-- Shadow -->
  <ellipse cx="200" cy="280" rx="70" ry="15" fill="#000" opacity="0.1"/>
</svg>
