<svg width="400" height="300" viewBox="0 0 400 300" xmlns="http://www.w3.org/2000/svg">
  <!-- Background -->
  <rect width="400" height="300" fill="#F8F9FA"/>
  
  <!-- Browser Window -->
  <rect x="50" y="50" width="300" height="200" rx="10" fill="#FFFFFF" stroke="#E9ECEF" stroke-width="2"/>
  
  <!-- Browser Header -->
  <rect x="50" y="50" width="300" height="30" rx="10" fill="#E9ECEF"/>
  <circle cx="70" cy="65" r="5" fill="#FF5F57"/>
  <circle cx="90" cy="65" r="5" fill="#FFBD2E"/>
  <circle cx="110" cy="65" r="5" fill="#28CA42"/>
  
  <!-- URL Bar -->
  <rect x="130" y="60" width="200" height="10" rx="5" fill="#FFFFFF"/>
  <text x="140" y="68" font-family="monospace" font-size="6" fill="#6C757D">tazmourt-amzwaro.com</text>
  
  <!-- Website Content -->
  <!-- Header -->
  <rect x="60" y="90" width="280" height="20" fill="#2D5016"/>
  <text x="200" y="103" text-anchor="middle" font-family="serif" font-size="10" fill="#FFFFFF">تازمورث - أمزوارو</text>
  
  <!-- Navigation -->
  <rect x="60" y="120" width="280" height="15" fill="#F5F5DC"/>
  <text x="80" y="130" font-family="serif" font-size="8" fill="#2D5016">Accueil</text>
  <text x="120" y="130" font-family="serif" font-size="8" fill="#2D5016">Produits</text>
  <text x="160" y="130" font-family="serif" font-size="8" fill="#2D5016">À propos</text>
  <text x="200" y="130" font-family="serif" font-size="8" fill="#2D5016">Contact</text>
  
  <!-- Product Cards -->
  <!-- Card 1 -->
  <rect x="70" y="145" width="80" height="80" rx="5" fill="#FFFFFF" stroke="#E9ECEF" stroke-width="1"/>
  <rect x="75" y="150" width="70" height="50" rx="3" fill="#2D5016"/>
  <text x="110" y="170" text-anchor="middle" font-family="serif" font-size="8" fill="#FFFFFF">تازمورث</text>
  <text x="110" y="185" text-anchor="middle" font-family="serif" font-size="6" fill="#FFFFFF">Huile d'Olive</text>
  <text x="110" y="220" text-anchor="middle" font-family="serif" font-size="7" fill="#2D5016">29.99 TND</text>
  
  <!-- Card 2 -->
  <rect x="160" y="145" width="80" height="80" rx="5" fill="#FFFFFF" stroke="#E9ECEF" stroke-width="1"/>
  <rect x="165" y="150" width="70" height="50" rx="3" fill="#FFD700"/>
  <text x="200" y="170" text-anchor="middle" font-family="serif" font-size="8" fill="#1C1C1C">أمزوارو</text>
  <text x="200" y="185" text-anchor="middle" font-family="serif" font-size="6" fill="#1C1C1C">Premium</text>
  <text x="200" y="220" text-anchor="middle" font-family="serif" font-size="7" fill="#2D5016">49.99 TND</text>
  
  <!-- Card 3 -->
  <rect x="250" y="145" width="80" height="80" rx="5" fill="#FFFFFF" stroke="#E9ECEF" stroke-width="1"/>
  <rect x="255" y="150" width="70" height="50" rx="3" fill="#50C878"/>
  <text x="290" y="170" text-anchor="middle" font-family="serif" font-size="8" fill="#FFFFFF">Collection</text>
  <text x="290" y="185" text-anchor="middle" font-family="serif" font-size="6" fill="#FFFFFF">Spéciale</text>
  <text x="290" y="220" text-anchor="middle" font-family="serif" font-size="7" fill="#2D5016">79.99 TND</text>
  
  <!-- Shopping Cart Icon -->
  <circle cx="320" cy="200" r="15" fill="#2D5016"/>
  <text x="320" y="205" text-anchor="middle" font-family="serif" font-size="10" fill="#FFFFFF">🛒</text>
  
  <!-- E-commerce Elements -->
  <rect x="60" y="235" width="280" height="10" fill="#F5F5DC"/>
  <text x="200" y="242" text-anchor="middle" font-family="serif" font-size="6" fill="#2D5016">Livraison gratuite • Paiement sécurisé • Retour facile</text>
</svg>
